<?xml version="1.0" encoding="utf-8"?>
<!-- Generator: Adobe Illustrator 22.1.0, SVG Export Plug-In . SVG Version: 6.00 Build 0)  -->
<svg version="1.1" id="Ebene_1" xmlns="http://www.w3.org/2000/svg" xmlns:xlink="http://www.w3.org/1999/xlink" x="0px" y="0px"
	 viewBox="0 0 50 72" style="enable-background:new 0 0 50 72;" xml:space="preserve">
<style type="text/css">
	.st0{fill:#f7c41b;}
</style>
<title>Group</title>
<desc>Created with Sketch.</desc>
<path id="Fill-2" class="st0" d="M21,71.9c-0.1-0.1-0.1-0.1-0.1-0.2c0-0.2,0-0.3,0.4-0.5c0.1-0.1,0.3-0.2,0.3-0.2
	c0,0,0.1-0.2,0.2-0.3c0.1-0.2,0.2-0.4,0.3-0.5c0.1-0.1,0.2-0.3,0.2-0.4c0.1-0.2,0.6-0.7,0.6-0.7c0,0,0.1-0.1,0.2-0.4
	c0.2-0.6,0.5-1.6,0.7-2.3c0.2-0.8,0.2-0.9,0.4-1.4c0.1-0.4,0.2-0.8,0.2-1c0-0.1,0-0.4,0.1-0.6c0.2-0.6,0.2-1,0.2-2.2
	c0-1,0-1.2,0.1-1.4c0-0.1,0-0.3,0-1.3c0-0.9,0-1.3,0-1.5c0.1-0.4,0.2-0.8,0.2-1c0.2-0.3,0.6-1.3,0.8-2c0.3-1,0.6-2.6,0.7-3.3
	c0-0.4,0.1-0.6,0.2-1.3c0.1-0.4,0.1-0.6,0.1-0.9c0-0.2,0-0.5,0-0.7c0-0.2,0-0.5,0.1-0.8c0-0.5,0-0.9-0.1-1.8c-0.1-0.5-0.1-0.5,0-1.7
	c0-0.2,0-0.5,0-0.6c0-0.1,0-0.5,0-0.9c0-0.3,0-1,0-1.5c0-0.7,0-0.9,0-0.9c0,0,0,0,0-0.1c0,0,0-0.1,0-0.1c0-0.2,0.1-1.3,0.1-1.8
	c0-0.5,0-0.6-0.1-0.8c-0.1-0.3-0.3-0.7-0.8-1.2c-0.2-0.2-0.4-0.3-0.6-0.4c-0.2,0-0.5-0.1-0.6,0c-0.1,0.1-0.1,0.2,0,0.6
	c0.1,0.4,0.2,0.7,0.3,1c0.3,0.6,0.3,0.6,0.3,1.2c0,1.1,0,2.1,0,2.2c0,0,0,0.1,0,0.2c0,0.1,0,0.2-0.1,0.3c-0.1,0.2-0.1,0.6-0.1,0.8
	c0,0.1,0,0.2,0,0.2c0,0,0,0.1,0,0.8c0,0.4,0,0.8,0,0.9c0.1,0.1,0.2,0.6,0.2,0.8c0,0.1,0,0.3,0.1,0.5c0.1,0.4,0.1,0.5,0,0.5
	c-0.1,0-0.2,0-0.2,0c-0.1-0.1-0.2-0.1-0.4-0.2c-0.1,0-0.1-0.1-0.2-0.1c-0.2-0.1-0.7-0.4-0.7-0.4c0,0-0.1-0.1-0.3-0.1
	c-0.2-0.1-0.3-0.2-0.4-0.2c-0.1,0-0.3-0.1-0.5-0.2c-0.7-0.3-1.6-0.6-2.1-0.6c-1.4-0.1-2.2-0.2-3.6-0.2c-0.9,0-1.3,0-1.6,0
	c-0.2,0-0.7,0.1-1.1,0.1c-0.5,0-0.8,0-0.9,0.1c-0.1,0-0.3,0-0.7,0c-0.4,0-0.7,0-1.1,0.1c-0.3,0-0.7,0.1-0.8,0.1
	c-0.2,0-0.9,0-2.2,0.1c-0.5,0-0.6,0-1.1,0c-0.3,0-0.7-0.1-0.9-0.1c-1.2-0.1-1.5-0.2-2-0.5c-0.3-0.2-0.6-0.5-0.6-0.6
	c-0.2-0.7-0.3-2-0.3-2.7c0-0.2,0-0.4,0-0.5c0-0.1,0-0.4,0-0.6c0-0.3,0-0.5,0-0.6c0-0.1,0-0.3,0.1-0.6c0.1-1,0.1-2.2,0-3.2
	c-0.1-0.5-0.1-0.9-0.1-1.3c0-0.6-0.2-1.1-0.4-1.5c-0.1-0.2-0.2-0.4-0.2-0.4c0-0.1-0.1-0.3-0.2-0.4c-0.1-0.2-0.2-0.3-0.2-0.4
	c0-0.1-0.1-0.2-0.1-0.2c-0.1-0.1-0.1-0.3-0.1-0.3c0-0.1-0.1-0.2-0.4-0.9C2.1,28.6,2,28.3,2,28.3c-0.1-0.2-0.3-0.6-0.3-0.7
	c0,0-0.4-0.9-0.6-1.1c0-0.1-0.2-0.5-0.4-0.9c0,0-0.1-0.3-0.2-0.5c-0.1-0.2-0.2-0.6-0.3-0.8C0,23.7,0,23.5,0,22.7
	c0-0.8,0-0.9,0.3-1.4c0,0,0-0.1,0-0.1c0-0.1,0.2-0.6,0.3-0.9c0.3-0.7,0.7-1.4,1.1-1.9c0.1-0.1,0.1-0.2,0.1-0.2
	c0-0.1,0.1-0.1,0.2-0.1c0.2,0,0.2,0.1,0.5,0.7c0.1,0.2,0.2,0.4,0.2,0.5c0.1,0.2,0.2,0.7,0.4,0.9c0.1,0.1,0.1,0.3,0.2,0.5
	c0.3,1,0.8,1.7,1.6,2.2C4.9,23.2,5,23.2,5,23.3c0,0,0.1,0,0.2-0.1c0.1-0.1,0.2-0.3,0.3-0.4l0-0.1l-0.3-0.3c-0.3-0.3-0.6-0.7-0.7-0.8
	c0,0-0.1-0.2-0.3-0.3c-0.2-0.3-0.4-0.5-0.5-0.8c0-0.1-0.1-0.3-0.2-0.6c-0.3-0.7-0.5-1.3-0.7-2.2c-0.2-0.8-0.3-1.9-0.2-2.2
	c0-0.2,0-0.3,0.1-0.5c0-0.1,0.1-0.2,0.1-0.3c0-0.1,0.5-1.2,0.9-2c0.5-1,1.3-2.5,1.5-2.5c0.1,0,0.3,0,0.4,0c0.1,0,0.2,0.2,0.2,0.4
	c0,0.1,0,0.3,0,0.6c0,0.5,0.1,1.1,0.1,1.2c0,0,0,0.2,0.1,0.3c0,0.1,0.1,0.3,0.1,0.4c0,0.1,0.1,0.4,0.2,0.7c0.4,1.1,0.7,2.1,0.8,2.4
	c0.3,0.6,0.6,1.1,1,1.3c0.1,0.1,0.1,0.1,0.2,0c0.1,0,0.1,0,0.1-0.3c0-0.2,0-0.4,0-0.6c0-0.2,0-0.4-0.1-0.6c0-0.2,0-0.4-0.1-0.4
	c0-0.1,0-0.2-0.1-0.3c0-0.1,0-0.2-0.1-0.3c0-0.1-0.1-0.3-0.1-0.4c-0.1-0.5-0.2-1.1-0.3-1.4c-0.1-0.3-0.2-1.2-0.3-1.9
	c0-0.5-0.1-0.7-0.1-0.7c0,0-0.1-0.7-0.2-1.2c0-0.3,0-0.7,0-0.9c0-0.4,0-0.5,0.1-0.6c0-0.1,0.1-0.2,0.1-0.2C7.5,7.7,7.8,7,8,6.6
	c0.6-1.2,1.5-2.4,2.3-3.4c0.4-0.4,0.9-0.9,1-0.9c0,0,0.1,0,0.1-0.1c0,0,0,0,0.1,0c0.1,0,0.4,0.4,0.4,0.8c0,0.1,0,0.2,0,0.4
	c0,0.1,0,0.4-0.1,0.6c0,0.2,0,0.6-0.1,0.8c0,0.3,0,0.7,0,1.8c0,1.4,0,1.6,0.1,2c0,0.1,0.1,0.4,0.1,0.6c0.1,0.6,0.1,0.8,0.2,1.1
	c0.1,0.5,0.1,0.6,0.2,0.7c0,0.1,0,0.2,0,0.2c0,0,0.1,0.5,0.1,0.7c0,0,0,0.2,0,0.2c0.1,0.3,0.1,0.5,0.1,0.7c0,0.2,0,0.2,0.2,0.5
	c0.1,0.2,0.1,0.3,0.1,0.3c0,0,0.1,0.1,0.1,0.2c0.1,0.1,0.1,0.1,0.2,0.1c0.1,0,0.1,0,0.1-0.2c0-0.1,0.1-0.3,0.1-0.4
	c0-0.3,0.1-0.4,0.1-0.7c0-0.2,0-0.2,0-0.3c0-0.1,0-0.4,0-0.7c0-0.3,0-0.7,0-0.7c0,0-0.1-0.5-0.1-1.1c-0.1-1.1-0.1-1.8-0.2-2.1
	c0-0.1,0-0.2,0-0.3c0-0.1,0-0.2,0-0.3c0-0.1,0-0.3,0-0.5c0-0.2,0-0.5,0-0.7c0-0.3,0-1.4,0-1.8c0.1-0.5,0.1-0.8,0.2-1
	c0.1-0.2,1.2-2.2,1.2-2.3c0,0,0.1-0.1,0.2-0.2c0.2-0.1,0.4-0.4,0.5-0.5C15.3,0,15.4,0,15.7,0c0.2,0,0.3,0.1,0.5,0.2
	c0.1,0.1,0.1,0.1,0.2,0.4c0.1,0.6,0.4,1.3,0.7,1.8C17,2.5,17,2.6,17,2.7c0,0,0,0.1,0.1,0.2C17.2,3,17.4,3.6,17.5,4
	c0.3,1.5,0.5,2.6,0.8,3.7c0.1,0.3,0.2,0.6,0.2,0.6c0,0.1,0,0.2,0.1,0.3c0,0.1,0.1,0.3,0.1,0.4c0,0.1,0,0.3,0.1,0.4
	c0,0.1,0.1,0.3,0.1,0.4c0,0.1,0.1,0.3,0.1,0.3c0,0.1,0.1,0.2,0.1,0.2c0,0,0,0.2,0.1,0.3c0.1,0.3,0.2,1,0.2,1.2c0,0.1,0,0.2,0,0.3
	c0.1,0.5,0.2,1.1,0.3,1.4c0,0.2,0.1,0.6,0.1,0.8c0,0.1,0.1,0.2,0.1,0.3c0,0.1,0,0.2,0.1,0.4c0.1,0.4,0.2,0.7,0.2,1
	c0,0.1,0.1,0.4,0.1,0.6c0.1,0.6,0.2,1,0.3,1.6c0.1,0.3,0.1,0.6,0.1,0.7c0,0.4,0.1,1.2,0.2,1.5c0,0.1,0.1,0.6,0.1,0.9
	c0,0.6,0,0.8,0.1,0.9c0,0.1,0.1,0.8,0.1,1c0,0.5,0.1,1.2,0.4,2.1c0,0.1,0.1,0.2,0.1,0.3c0,0.1,0,0.2,0,0.2c0,0.1,0,0.3,0,0.5
	c0,0.2,0,0.4,0.1,0.5c0,0.1,0,0.3,0.1,0.4c0,0.1,0,0.3,0.1,0.4c0.1,0.2,0.1,0.6,0.2,0.9c0,0.2,0,0.2,0.1,0.3
	c0.1,0.1,0.2,0.2,0.4,0.1c0.2-0.1,0.3-0.2,0.4-0.3c0.1-0.1,0.1-0.2,0.2-0.2c0,0,0.1,0,0.2,0c0.2,0,0.3,0.1,0.4,0.2
	c0.1,0.1,0.1,0.2-0.1,0.9c-0.1,0.4-0.1,0.5-0.1,0.9c0,0.4,0,0.9,0.1,1.2c0,0.2,0.2,0.4,0.4,0.4c0.1,0,0.3-0.1,0.3-0.1
	c0-0.1,0.3-0.2,0.5-0.2c0.1,0,0.3,0.1,0.3,0.3c0,0,0,0.1,0.1,0.1c0,0,0.2-0.1,0.2-0.2c0.1-0.2,0-1-0.2-1.4c0-0.1-0.2-0.3-0.3-0.5
	c-0.2-0.4-0.5-0.8-0.6-1.1C24.2,28.6,24,28.1,24,28c0-0.1,0.6-0.1,0.8,0c0.5,0.1,0.9,0.5,1.1,1.1c0.1,0.1,0.1,0.3,0.1,0.3
	c0,0.1,0,0.1,0.1,0.1c0,0,0.2,0.8,0.2,1.1c0,0.1,0,0.5,0.1,0.9c0.1,0.4,0.1,0.7,0.1,0.8c0,0.2,0,0.2,0.5,0.2c1,0,1.9-0.2,2.8-0.8
	c0.1-0.1,0.3-0.2,0.5-0.3c0.2-0.1,0.4-0.3,0.6-0.4c0.5-0.3,1.3-0.8,1.7-1c0.2-0.1,0.4-0.3,0.6-0.3c0.3-0.2,0.5-0.3,0.7-0.4
	c0.1,0,0.2-0.1,0.2-0.1c0,0,0.1-0.1,0.2-0.1c0.2-0.1,0.6-0.5,0.8-0.7c0.1-0.1,0.3-0.2,0.4-0.3c0.1-0.1,0.3-0.2,0.4-0.3
	c0.1-0.1,0.2-0.2,0.3-0.2c0.2-0.1,1.5-1,1.7-1.1c0.1-0.1,0.3-0.2,0.4-0.3c0.3-0.3,0.4-0.4,1.1-0.9c0.7-0.5,1.3-0.9,1.8-1.3
	c0.2-0.1,0.3-0.2,0.4-0.2c0,0,0.2-0.1,0.5-0.3c0.2-0.2,0.5-0.3,0.6-0.3c0.3-0.1,0.9-0.4,1-0.5c0,0,0.2-0.1,0.3-0.2
	c0.1-0.1,0.2-0.1,0.3-0.2c0.2-0.1,0.6-0.4,1.1-0.7c0.9-0.5,2-1.1,2.9-1.5c0.4-0.2,0.5-0.2,0.8-0.5c0.2-0.2,0.6-0.4,0.8-0.5l0.1,0
	l0,0.4c0,0.6,0,1.3-0.1,1.9c-0.2,1-0.7,2.1-1.4,2.9c-0.6,0.7-1.7,1.9-2.5,2.6c-0.6,0.5-1,0.9-1.1,0.9c-0.1,0-0.3,0.2-0.4,0.3
	c-0.1,0.1-0.2,0.2-0.4,0.3c-0.2,0.1-0.4,0.2-0.6,0.5c-0.3,0.3-0.7,0.6-1,0.8c-0.1,0.1-0.2,0.1-0.2,0.2c0,0.1,0.1,0.3,0.2,0.4
	c0.1,0.1,0.1,0.1,0.2,0.2c0.1,0.1,0.2,0.1,0.4,0.1c0.3,0,0.6-0.1,0.8-0.3c0.1-0.1,0.3-0.2,0.4-0.2c0.1-0.1,0.2-0.1,0.2-0.2
	c0.1-0.1,0.4-0.3,0.9-0.6c1.5-0.9,3.2-2.2,4.7-3.4c0.1-0.1,0.2-0.1,0.2-0.1c0,0,0,0.4,0,0.8c0,0.4,0,1.2,0,1.7c0,0.6,0,0.9-0.1,1.1
	c0,0.2-0.1,0.4-0.1,0.5c-0.1,0.8-0.3,1.4-0.8,1.8c-0.2,0.3-0.5,0.4-0.9,0.6c-1.1,0.5-2.7,1.3-3.7,1.9c-0.2,0.1-0.4,0.2-0.5,0.3
	c-0.7,0.4-1.1,0.6-1.6,0.9c-1.2,0.7-1.1,0.6-1.1,0.9c0,0.2,0.1,0.2,0.3,0.3c0.2,0.1,0.6,0.1,0.8,0c0.1,0,0.2-0.1,0.3-0.1
	c0.1,0,0.2-0.1,0.3-0.1c0.1,0,0.3-0.1,0.5-0.1c1.2-0.2,2.4-0.6,3.4-1.1c0.2-0.1,0.3-0.1,0.3-0.1c0.2,0,1.1-0.4,1.4-0.7
	c0.3-0.3,0.5-0.4,0.6-0.4c0.1,0,0.2,0,0.3,0.2c0.1,0.2,0.2,0.4,0.1,0.7c-0.1,0.7-0.3,1.2-0.6,1.5c-0.4,0.4-1.5,1-2.5,1.4
	c-1.2,0.5-2.8,0.9-4.1,1c-0.1,0-0.3,0-0.4,0.1c-0.1,0-0.3,0.1-0.6,0.1c-0.5,0.1-0.6,0.1-0.7,0.3c-0.1,0.1-0.1,0.1,0,0.2
	c0,0.1,0.2,0.3,0.4,0.4c0.2,0.1,0.4,0.1,2.4,0.1l1.9,0l0.2-0.1c0.1,0,0.3-0.1,0.3-0.1c0.1,0,0.9-0.3,1.2-0.5
	c0.3-0.1,0.7-0.2,0.9-0.1c0.1,0,0.1,0,0.1,0.4c0,0.7-0.1,1.4-0.2,2c-0.1,0.4-0.2,0.6-0.3,0.7c0,0-0.2,0.3-0.3,0.6
	C47,43,47,43.1,46.7,43.3c-0.3,0.2-1,0.5-1.4,0.7c-0.4,0.2-0.6,0.2-1.2,0.3c-0.4,0.1-1.1,0.1-1.4,0c-0.1,0-0.5-0.1-0.8-0.1
	c-0.3,0-0.6-0.1-0.6-0.1c-0.1,0-1.3,0-1.5,0c-0.1,0-0.2,0.1-0.2,0.2c0,0,0,0.1,0.1,0.2c0.3,0.5,0.5,0.7,0.8,0.9
	c0.3,0.2,0.6,0.3,1,0.4c0.2,0,0.4,0,1.4,0l1.2,0l0.3-0.1c0.2,0,0.5-0.1,0.8-0.2c0.3-0.1,0.6-0.2,0.6-0.2c0.2,0,0.2,0,0.2,0
	c0.1,0.1,0.1,0.3-0.3,1.1c-0.6,1.2-1.3,2.2-2.1,3.2c-0.3,0.3-0.4,0.4-1,0.5c-0.2,0-0.3,0-0.6,0c-0.2,0-0.4,0-0.4-0.1
	c0,0-0.3,0-0.5-0.1c-0.3,0-0.4,0-0.6-0.1c-0.2-0.1-0.5-0.1-0.9-0.2c-0.4-0.1-1.2-0.3-2-0.7c-0.7-0.3-1.2-0.5-1.8-0.6
	c-0.6-0.1-1.5,0-2,0.2l-0.1,0l0,0.3c0,0.2-0.1,1.2-0.2,2.3c0,0.2,0,0.4,0,0.6c0,0.1,0,0.3,0,0.3c0,0.1,0,0.2,0,0.3
	c0,0.1,0,0.3,0,0.6c0,0.2,0,0.6,0,0.7c0,0.3-0.1,1-0.1,1.2c0,0.2-0.1,0.6-0.1,0.9c0,0.1,0,0.3,0,0.3c0,0-0.1,0.6-0.1,1
	c0,0.2,0,0.3,0,0.3c0,0,0,0.1,0,0.2c0,0.1,0,0.3-0.1,0.4c0,0.1-0.1,0.4-0.2,0.7c-0.1,0.3-0.1,0.6-0.1,0.6c0,0-0.1,0.3-0.1,0.6
	c-0.2,1-0.5,2.4-0.8,3.4l-0.1,0.4l0,1.3c0,0.7,0,1.4,0,1.4c0,0.1,0.1,0.3,0.1,0.5c0.1,0.4,0.2,0.6,0.2,0.9c0.1,0.4,0.2,0.9,0.5,1.2
	c0.1,0.1,0.1,0.2,0.1,0.2c0,0,0.1,0.1,0.2,0.3c0.3,0.4,0.4,0.7,0.4,1.1c0,0.3,0,0.3-0.1,0.4c-0.1,0.2-0.2,0.3-0.5,0.3
	c-0.5,0-0.8-0.2-1.4-0.8c-0.4-0.4-0.6-0.6-0.9-1.1c-0.2-0.4-0.6-1.1-0.8-1.5C29,67.7,29,67.7,29,67.4l0-0.4l0.1,0
	c0.1,0,0.3,0,0.4,0.1c0.1,0.1,0.2,0.3,0.3,0.5c0.1,0.3,0.3,0.8,0.3,0.8c0,0,0.1,0.1,0.1,0.2c0.1,0.3,0.3,0.5,0.5,0.6
	c0.1,0,0.1,0,0.1,0c0-0.1-0.1-0.6-0.2-0.8c0-0.3-0.1-0.6-0.2-0.9c-0.1-0.3-0.1-0.4-0.1-1.1c0-0.5,0-0.8,0-1.1c0-0.2,0-0.5,0-0.6
	c0-0.7,0-0.9,0.1-1.3c0.2-0.9,0.6-2.5,0.7-2.9c0-0.1,0-0.2,0.1-0.3s0.1-0.3,0.1-0.4c0-0.1,0-0.3,0.1-0.4c0-0.1,0.1-0.2,0.1-0.3
	c0-0.1,0.1-0.2,0.2-0.5c0.1-0.2,0.2-0.4,0.2-0.4c0-0.1,0.2-0.8,0.3-1.3c0-0.2,0.1-0.4,0.1-0.4c0.1-0.1,0-1.1-0.1-1.2
	c-0.1-0.1-0.3-0.1-0.3,0.1c-0.1,0.2-0.1,0.2-0.1,0.4c0,0.1,0,0.3-0.1,0.4c0,0.1-0.1,0.5-0.1,0.9c0,0.6-0.1,0.9-0.1,1
	c0,0,0,0.1,0,0.1c0,0,0,0.1,0,0.1c0,0,0,0.1,0,0.1c0,0,0,0.1,0,0.1c0,0-0.1,0.2-0.1,0.4c-0.1,0.2-0.1,0.4-0.3,0.4
	c-0.1,0-0.2,0-0.3,0c-0.2,0-0.3,0-0.4-0.2c-0.1-0.1-0.1-0.2-0.1-0.4c0-0.3,0.1-0.7,0.2-0.9c0-0.1,0.1-0.2,0.1-0.3
	c0-0.1,0-0.2,0.1-0.2c0,0,0-0.1,0-0.1s0-0.1,0-0.1c0.1-0.1,0.1-0.3,0.3-1.1c0.2-0.9,0.4-1.9,0.4-2.2c0-0.3,0-0.5-0.2-1.1
	c-0.2-0.7-0.4-1.3-0.4-1.3c0,0,0.1,0,0.2,0c0.3,0,0.6,0.1,0.8,0.5c0.3,0.4,0.4,0.5,0.6,0.3c0.3-0.2,0.4-0.6,0.4-1.7
	c0-1-0.1-2.6,0-2.9c0-0.3,0-0.3,0-0.5c-0.1-0.4-0.2-1-0.2-1.3c-0.1-1.8-0.6-3.3-1.5-4.3l-0.2-0.3l-0.1,0c-0.1,0-0.2,0.1-0.3,0.1
	c-0.3,0.1-0.5,0.3-0.6,0.6c-0.2,0.3-0.2,0.5-0.2,1c0,0.4,0,0.5,0.1,0.7c0,0.1,0.1,0.3,0.1,0.3c0,0.1,0.1,0.2,0.1,0.3
	c0.1,0.1,0.2,0.4,0.4,1.1c0.1,0.5,0.3,1.2,0.4,1.6l0.2,0.7l0,1.1c0,1.4,0,1.6-0.1,1.7c-0.1,0.1-0.2,0.2-0.3,0.3
	c-0.2,0-0.2,0-0.2-0.1c-0.1-0.4-0.2-1.5-0.2-1.8c0-0.6-0.1-1.4-0.3-2.1c-0.1-0.2-0.1-0.3-0.1-0.4c0,0,0-0.1-0.1-0.2
	c-0.1-0.1-0.2-0.2-0.4-0.1l-0.2,0l0,0.2c0,0.1,0,0.3,0,0.3c0,0.1,0,0.2-0.1,0.4c0,0.2-0.1,0.3-0.1,0.4c-0.1,0.2-0.1,0.6-0.1,0.9
	c0,0.2-0.1,0.5-0.1,0.6c-0.1,0.2-0.1,0.3-0.1,1c0,0.6,0,0.7,0,0.7c0,0,0,0.1,0,0.3c0,0.2,0,0.3-0.1,0.4c0,0.1-0.1,0.1-0.1,0.2
	c0,0-0.1,0.3-0.2,0.5c-0.3,0.7-0.6,1.7-0.7,2.6c0,0.2-0.2,0.9-0.3,1.5c-0.4,2.4-0.8,4.1-1.4,6c-0.1,0.3-0.2,0.6-0.2,0.6
	c0,0,0,0.1,0,0.1c0,0,0,0.1,0,0.1c0,0.1-0.1,1-0.2,1.3c-0.1,0.4-0.1,0.5,0,1.8c0,0.5,0,0.6,0,0.8c-0.1,0.2-0.6,1.5-0.8,2.1
	c-0.1,0.3-0.3,0.7-0.4,0.9c-0.2,0.4-0.2,0.4-0.5,0.7c-0.5,0.5-0.8,0.8-1.4,1.1c-0.3,0.2-0.4,0.2-0.6,0.2C21.1,72,21.1,72,21,71.9z
	 M23.8,35.5c0-0.1-0.5-0.4-0.7-0.5c-0.1-0.1-0.2-0.1-0.3-0.2c-0.1-0.1-0.2-0.1-0.3-0.1c0,0-0.1,0-0.2,0c-0.2-0.1-0.4-0.1-1-0.2
	c-0.3,0-0.5-0.1-0.6-0.1c0,0-0.3,0-0.5-0.1c-0.2,0-0.5-0.1-0.7-0.1c-0.1,0-0.4-0.1-0.5-0.1c-0.1,0-0.5-0.1-0.8-0.1
	c-0.7-0.1-0.9-0.1-1.3-0.1c-0.2,0-0.5,0-0.7,0c-0.3,0-0.4,0-0.7,0c-0.2,0-0.3,0-0.4,0c-0.1,0-0.1,0,0,0.2c0.1,0.1,0.3,0.2,0.5,0.2
	c0.1,0,0.1,0,0.2,0c0,0,0.1,0,0.2,0.1c0.1,0,0.5,0.1,0.8,0.2c0.3,0.1,0.8,0.2,1.3,0.2c0.2,0,0.6,0.1,0.8,0.1
	c0.2,0.1,0.7,0.1,0.9,0.2c0.3,0.1,0.6,0.1,0.8,0.2c0.5,0.1,1.8,0.3,2.8,0.3C23.8,35.6,23.8,35.6,23.8,35.5z M25.4,34.5
	c0.1,0,0.1,0,0.1,0c0,0,0,0,0,0c0,0,0,0,0-0.1c0,0,0-0.1,0-0.1c0-0.1-0.3-0.5-0.4-0.6c-0.1-0.1-0.3-0.3-0.5-0.3
	c-0.2-0.1-1-0.1-1.2,0.1c0,0-0.1,0-0.1,0c0,0-0.1,0.1-0.1,0.2c0,0.1,0.1,0.2,0.3,0.4c0.1,0.1,0.4,0.3,0.4,0.3c0,0,0.1,0,0.1,0.1
	c0.1,0,0.2,0.1,0.2,0.1c0.1,0,0.2,0,0.3,0.1C25,34.6,25.2,34.6,25.4,34.5z M14.3,33.1c0,0,0.4,0,0.7-0.1c0.3,0,0.7,0,0.8,0
	c0.8-0.1,3.5-0.1,3.9,0c0.8,0.2,1.1,0.2,1.4,0.1c0.2,0,0.4-0.1,0.5-0.1c0.2-0.1,0.7-0.3,0.7-0.3c0-0.1,0-0.2-0.1-0.3
	c0,0-0.1-0.1-0.3-0.1c-0.4,0-0.6,0-0.8-0.1c-0.1,0-0.4,0-0.6-0.1c-0.7,0-1.2-0.2-1.5-0.4c-0.1-0.1-0.2-0.1-0.2-0.1
	c0,0-0.1,0-0.1-0.1c0,0,0,0-0.1,0c-0.1,0-0.2,0-0.4-0.1c-0.4-0.1-1.5-0.1-1.7,0c-0.4,0.1-0.5,0.1-0.6,0.1c-0.1,0-0.2,0.1-0.2,0.1
	c-0.5,0.4-0.9,0.6-1.1,0.6c-0.2,0-0.3-0.1-0.4-0.2c-0.1-0.2-0.1-0.4-0.1-0.6c0,0,0-0.1,0-0.1c0-0.1,0.1-0.2,0.2-0.5
	c0.1-0.2,0.1-0.2,0.1-0.6c0-0.2,0-0.5,0-0.6c0-0.2,0-0.6,0-1c0-0.3,0-0.4,0-0.6c0-0.1,0-0.3,0-0.4c0-0.1,0-0.7,0-1.3
	c0-0.9,0-1.1,0-1.3c0.1-0.2,0.1-0.4,0.2-0.5c0-0.1,0.1-0.2,0.2-0.3c0.2-0.3,0.3-0.6,0.5-0.7c0.1-0.1,0.1-0.2,0.1-0.3
	c0-0.2-0.1-0.4-0.2-0.5c-0.1-0.1-0.3-0.2-0.5-0.2c-0.2,0-0.2,0-0.3,0.1c-0.5,0.3-0.8,0.8-0.9,1.4c-0.1,0.2-0.1,0.3-0.1,1.3
	c0,0.6,0,1.2,0,1.4c0,0.2,0,0.4,0,0.4c0,0.8,0,1.3-0.1,1.5c0,0.2,0,0.4-0.1,0.6c0,0.4-0.1,0.8-0.1,1c-0.1,0.5-0.1,0.9-0.1,1
	c0,0.1,0.1,0.6,0.1,1c0,0.2,0,0.4,0.1,0.5C13.5,33,14,33.1,14.3,33.1z M11.9,32c0.2-0.3,0.4-0.7,0.5-1.1c0.1-0.3,0.1-0.5,0.1-1
	c0-0.2,0.1-0.6,0.1-0.8c0-0.3,0.1-0.5,0.1-0.6c0-0.1,0-0.3,0.1-0.6c0-0.3,0.1-0.5,0.1-0.7c0-0.2,0-0.5,0.1-0.7
	c0-0.3,0.1-0.6,0.1-1.3l0-0.9l0.1-0.4c0.1-0.6,0.4-1.3,0.6-1.5c0.2-0.2,1.2-0.6,2.1-0.7c0.2,0,0.4-0.1,0.4-0.1c0,0,0.7-0.1,1-0.1
	c0.5,0,0.9,0,1.7,0.2c0.6,0.2,0.6,0.2,0.6,0.3c0,0-0.1,0.2-0.3,0.6c-0.5,0.9-1,1.7-1.4,2.4l-0.2,0.5l0,0.2c0.1,0.5,0.5,0.9,0.9,1
	c0.1,0,0.2,0.1,0.5,0.8c0.4,0.8,0.7,1.6,1,2.5c0.1,0.4,0.2,0.6,0.4,1.2c0.1,0.2,0.1,0.2,0.1,0.2c0.1,0,0.1,0,0.2-0.2
	c0.2-0.4,0.2-0.5,0.2-0.8c0-0.1,0-0.4,0-0.6c0-0.2,0-0.5,0-0.6c0-0.1,0-0.3-0.1-0.4c0-0.1,0-0.3,0-0.4c0-0.1,0-0.2,0-0.3
	c0,0,0-0.3-0.1-0.7c-0.1-1.4-0.3-2.9-0.3-3c0,0,0-0.1,0-0.2c0-0.1,0-0.2,0-0.3c0-0.1,0-0.3,0-0.5c0-0.2,0-0.4,0-0.4
	c0,0,0-0.3-0.1-0.6c0-0.5-0.1-0.9-0.1-1c-0.1-0.2-0.1-0.5-0.1-1c0-0.5-0.1-0.8-0.3-2.1c-0.1-0.3-0.1-0.7-0.1-0.8
	c0-0.1,0-0.3-0.1-0.4c-0.1-0.3-0.4-2.3-0.5-3.2c0-0.3-0.1-0.4-0.2-0.9c-0.1-0.3-0.2-0.6-0.2-0.8c-0.1-0.6-0.1-0.8-0.2-0.9
	c0-0.1,0-0.1,0-0.2c0,0,0-0.1-0.1-0.2c-0.1-0.4-0.5-2-0.7-3.5c-0.1-0.7-0.3-1.9-0.3-2.1c0-0.2-0.3-1.2-0.4-1.5
	c-0.3-0.5-0.7-0.9-1.2-1.1l-0.2-0.1l-0.1,0.1c-0.3,0.3-0.5,0.5-0.5,0.8c0,0.2-0.1,0.7-0.1,1.1c0,0.2,0,0.7,0,1.2c0,0.5,0,1,0,1.1
	c0,0.2,0,0.3,0.1,0.9c0,0.2,0,0.4,0,1c0,0.4,0,1.2,0,1.8c0,0.6,0,1.1,0,1.3c0,0.4-0.3,1.8-0.3,2.1c0,0.1-0.1,0.3-0.1,0.4
	c0,0.1,0,0.2-0.1,0.2c0,0-0.2,0.4-0.5,0.9c-0.2,0.5-0.5,1-0.6,1.2L12.8,17l0,0.3c0,0.4-0.2,2-0.2,2.1c0,0,0,0.1-0.1,0.2
	c0,0.1-0.1,0.3-0.1,0.5c-0.2,0.7-0.4,1.3-0.9,1.8c-0.1,0.1-0.2,0.2-0.2,0.2c0,0.1-0.3,1.1-0.5,1.7l-0.2,0.5l0,0.9c0,1,0,0.9,0.2,1.6
	c0.1,0.3,0.1,0.4,0.1,0.7c0,0.4,0,0.7-0.1,0.9c-0.1,0.1-0.1,0.2-0.1,0.2c0,0.1-0.1,0.4-0.2,0.5c0,0.1-0.1,0.3-0.2,0.4
	c-0.1,0.3-0.1,0.3-0.1,0.6c0,0.3,0,0.4,0.1,0.7c0.1,0.2,0.5,0.8,0.9,1c0.1,0.1,0.2,0.1,0.3,0.1C11.8,32.1,11.8,32.1,11.9,32L11.9,32
	z M3.8,26.1c0.2-0.2,0.3-0.4,0.4-0.7c0.1-0.4,0.1-1.3,0-1.4c0,0-0.1-0.1-0.1-0.2c-0.1-0.2-0.2-0.6-0.4-0.7c-0.1-0.2-0.3-0.3-0.5-0.4
	c-0.2-0.1-0.5-0.1-0.8,0l-0.2,0.1l0,0.1c0.1,0.3,0.2,0.9,0.4,1.1c0,0.1,0.2,0.2,0.2,0.3c0.2,0.3,0.3,0.3,0.3,0.6c0,0.2,0,0.3,0,0.3
	c0,0,0,0.1,0,0.2c0,0.2,0.1,0.4,0.1,0.5c0.1,0.1,0.2,0.2,0.4,0.2h0.2L3.8,26.1L3.8,26.1z M6.9,20.1C7.1,20,7.1,20,7.1,19.6
	c0-0.4-0.1-0.6-0.4-2c-0.4-1.8-0.5-2.1-0.7-2.3C5.7,15,5.4,15,5.2,15.1L5,15.2v0.7c0,0.6,0,0.8,0.1,1c0.2,1.2,0.7,2.3,1.4,3
	C6.7,20.2,6.8,20.2,6.9,20.1z M10.2,14.7c0.2-0.1,0.4-0.2,0.6-0.4c0.2-0.2,0.3-0.4,0.4-0.8l0.1-0.3v-1.2c0-1.1,0-1.2-0.1-1.4
	c-0.1-0.4-0.2-1.2-0.3-1.5c0-0.2,0-0.3,0-0.3c0-0.1-0.1-0.5-0.1-0.8c0-0.3-0.1-0.4-0.2-0.4c-0.1,0-0.1,0-0.3,0.1
	C10,8.1,9.7,8.4,9.7,8.6c0,0.1,0,0.2,0,0.4c0,0.1-0.1,0.4-0.1,0.6c0,0.2-0.1,0.5-0.1,0.8c0,0.2-0.1,0.6-0.1,0.7c0,0.4-0.1,1.3,0,1.8
	c0,0.6,0.1,1.2,0.1,1.5c0,0.3,0,0.3,0.1,0.4c0.1,0.1,0.1,0.1,0.2,0.1C10,14.8,10.1,14.8,10.2,14.7z"/>
</svg>

