<?xml version="1.0" encoding="utf-8"?>
<!-- Generator: Adobe Illustrator 22.1.0, SVG Export Plug-In . SVG Version: 6.00 Build 0)  -->
<svg version="1.1" id="Ebene_1" xmlns="http://www.w3.org/2000/svg" xmlns:xlink="http://www.w3.org/1999/xlink" x="0px" y="0px"
	 viewBox="0 0 446 72" style="enable-background:new 0 0 446 72;" xml:space="preserve">
<style type="text/css">
	.st0{fill:#f7c41b;}
</style>
<title>Group</title>
<desc>Created with Sketch.</desc>
<path id="Friedrich-Wilhelm-Gy" class="st0" d="M92.4,40.5h-6.9V47h-2.8V30.2h9.7v2.5h-6.9V38h6.9V40.5z M102.4,35.8v2.4
	c-0.4-0.1-0.6-0.1-1-0.1c-2.2,0-3.5,1.3-3.5,4.1V47h-2.6V35.8h2.6v1.8c0.5-1,2-1.9,3.5-1.9C101.8,35.7,102.1,35.7,102.4,35.8z
	 M105.6,47V35.8h2.6V47H105.6z M105,31.7c0-1.1,0.9-1.9,1.9-1.9c1.1,0,1.9,0.9,1.9,1.9c0,1.1-0.9,1.9-1.9,1.9
	C105.8,33.7,105,32.8,105,31.7z M120.7,43.6h2.6c-0.4,1.9-2.2,3.6-5,3.6c-3.8,0-5.6-2.8-5.6-5.9c0-3.4,2-5.9,5.5-5.9
	c2.9,0,5.2,2.2,5.2,5c0,0.4,0,0.9-0.1,1.6h-7.9c0,1.6,0.8,2.9,2.9,2.9C119.8,45.1,120.4,44.4,120.7,43.6z M118.2,37.7
	c-1.5,0-2.8,0.9-2.8,2.7h5.5C120.9,38.7,119.8,37.7,118.2,37.7z M132.7,45c2,0,3.3-1.6,3.3-3.6c0-1.9-1.3-3.6-3.3-3.6
	c-2,0-3.3,1.6-3.3,3.6C129.4,43.3,130.7,45,132.7,45z M136,37.3v-7.1h2.6V47H136v-1.5c-0.7,1.1-2.2,1.8-3.5,1.8
	c-3.4,0-5.7-2.7-5.7-5.9s2.3-5.9,5.7-5.9C133.8,35.5,135.3,36.2,136,37.3z M150.5,35.8v2.4c-0.4-0.1-0.6-0.1-1-0.1
	c-2.2,0-3.5,1.3-3.5,4.1V47h-2.6V35.8h2.6v1.8c0.5-1,2-1.9,3.5-1.9C149.9,35.7,150.3,35.7,150.5,35.8z M153.7,47V35.8h2.6V47H153.7z
	 M153.1,31.7c0-1.1,0.9-1.9,1.9-1.9c1.1,0,1.9,0.9,1.9,1.9c0,1.1-0.9,1.9-1.9,1.9C153.9,33.7,153.1,32.8,153.1,31.7z M171.8,39.9
	h-2.6c-0.1-1.2-0.9-2-2.6-2c-2,0-3,1.7-3,3.6c0,1.9,0.9,3.6,3.2,3.6c1.5,0,2.2-0.7,2.5-1.8h2.6c-0.4,2.3-2.1,4.1-5.3,4.1
	c-3.6,0-5.6-2.8-5.6-5.9c0-3,1.9-5.9,5.6-5.9C170.1,35.5,171.6,37.7,171.8,39.9z M177.3,47h-2.6V30.2h2.6v7.2c0.7-1.2,2-1.8,3.6-1.8
	c1.6,0,2.7,0.6,3.4,1.5c0.6,0.8,0.7,1.8,0.7,3.3V47h-2.6v-5.8c0-1.9-0.6-3.4-2.4-3.4c-1.8,0-2.7,1.5-2.7,3.4V47z M194.3,39v2.3h-5.6
	V39H194.3z M213,42.2l3.9-12h2.9L214,47h-2l-3.9-12l-3.9,12h-2l-5.8-16.8h2.9l3.9,12l3.9-12h2L213,42.2z M223.1,47V35.8h2.6V47
	H223.1z M222.5,31.7c0-1.1,0.9-1.9,1.9-1.9c1.1,0,1.9,0.9,1.9,1.9c0,1.1-0.9,1.9-1.9,1.9C223.4,33.7,222.5,32.8,222.5,31.7z
	 M231.1,47V30.2h2.6V47H231.1z M241.2,47h-2.6V30.2h2.6v7.2c0.7-1.2,2-1.8,3.6-1.8c1.6,0,2.7,0.6,3.4,1.5c0.6,0.8,0.7,1.8,0.7,3.3
	V47h-2.6v-5.8c0-1.9-0.6-3.4-2.4-3.4c-1.8,0-2.7,1.5-2.7,3.4V47z M260.7,43.6h2.6c-0.4,1.9-2.2,3.6-5,3.6c-3.8,0-5.6-2.8-5.6-5.9
	c0-3.4,2-5.9,5.5-5.9c2.9,0,5.2,2.2,5.2,5c0,0.4,0,0.9-0.1,1.6h-7.9c0,1.6,0.8,2.9,2.9,2.9C259.8,45.1,260.4,44.4,260.7,43.6z
	 M258.2,37.7c-1.5,0-2.8,0.9-2.8,2.7h5.5C260.9,38.7,259.8,37.7,258.2,37.7z M267.6,47V30.2h2.6V47H267.6z M284.3,37.5
	c0.5-1.1,1.8-2,3.4-2c3.4,0,4,2.3,4,4.4V47h-2.6v-6.3c0-1.8-0.6-2.9-2.1-2.9c-1.3,0-2.4,0.8-2.4,3.5V47h-2.6v-6.3
	c0-1.8-0.6-2.9-2-2.9c-1.3,0-2.4,0.8-2.4,3.5V47h-2.6V35.8h2.6v1.6c0.5-1,1.7-1.8,3.1-1.8C282.9,35.5,283.9,36.4,284.3,37.5z
	 M301.1,39v2.3h-5.6V39H301.1z M314.7,41v-2.5h8V41h-1.8c-0.7,3.8-3.5,6.4-8.2,6.4c-5.5,0-8.6-4.2-8.6-8.8s3.3-8.8,8.6-8.8
	c4,0,6.9,2.5,7.2,5.4H317c-0.3-1.7-2-3-4.4-3c-3.6,0-5.8,3-5.8,6.3c0,3.3,2,6.3,6.2,6.3c2.9,0,4.6-1.8,4.9-3.9H314.7z M325.4,48.3
	h2.5c0,1.2,0.8,2.3,2.7,2.3c1.9,0,2.8-0.8,2.8-3v-2.1c-0.7,1.2-2,1.8-3.6,1.8c-1.6,0-2.7-0.6-3.4-1.5c-0.6-0.8-0.7-1.8-0.7-3.3v-6.6
	h2.6v5.8c0,1.9,0.6,3.4,2.4,3.4c1.8,0,2.7-1.5,2.7-3.4v-5.8h2.6v11.7c0,3.8-2.1,5.4-5.8,5.4C327.3,52.9,325.4,50.7,325.4,48.3z
	 M350,37.5c0.5-1.1,1.8-2,3.4-2c3.4,0,4,2.3,4,4.4V47h-2.6v-6.3c0-1.8-0.6-2.9-2.1-2.9c-1.3,0-2.4,0.8-2.4,3.5V47h-2.6v-6.3
	c0-1.8-0.6-2.9-2-2.9c-1.3,0-2.4,0.8-2.4,3.5V47h-2.6V35.8h2.6v1.6c0.5-1,1.7-1.8,3.1-1.8C348.5,35.5,349.5,36.4,350,37.5z
	 M364.8,47h-2.6V35.8h2.6v1.6c0.7-1.2,2-1.8,3.6-1.8c1.6,0,2.7,0.6,3.4,1.5c0.6,0.8,0.7,1.8,0.7,3.3V47h-2.6v-5.8
	c0-1.9-0.6-3.4-2.4-3.4c-1.8,0-2.7,1.5-2.7,3.4V47z M382.2,45c2,0,3.3-1.6,3.3-3.6c0-1.9-1.3-3.6-3.3-3.6c-2,0-3.3,1.6-3.3,3.6
	C378.9,43.3,380.2,45,382.2,45z M385.5,37.3v-1.5h2.6V47h-2.6v-1.5c-0.7,1.1-2.2,1.8-3.5,1.8c-3.4,0-5.7-2.7-5.7-5.9
	s2.3-5.9,5.7-5.9C383.3,35.5,384.8,36.2,385.5,37.3z M392.1,43.2h2.5c0,1.5,0.9,2,2.2,2c1,0,1.8-0.3,1.8-1.3c0-1.1-1.1-1.1-3.5-2
	c-1.6-0.6-2.7-1.2-2.7-3.1c0-2.1,1.9-3.2,4.2-3.2c2.4,0,4.3,1.6,4.3,3.8h-2.5c0-1.1-0.5-1.7-1.8-1.7c-0.9,0-1.6,0.4-1.6,1.2
	c0,1,1,1.1,3.1,1.9c1.6,0.6,3,1.2,3,3.2c0,2.3-2,3.4-4.5,3.4C394.2,47.3,392.1,45.9,392.1,43.2z M405.7,47V35.8h2.6V47H405.7z
	 M405.1,31.7c0-1.1,0.9-1.9,1.9-1.9c1.1,0,1.9,0.9,1.9,1.9c0,1.1-0.9,1.9-1.9,1.9C405.9,33.7,405.1,32.8,405.1,31.7z M421.2,35.8
	h2.6V47h-2.6v-1.6c-0.7,1.2-2,1.8-3.6,1.8c-1.6,0-2.7-0.6-3.4-1.5c-0.6-0.8-0.7-1.8-0.7-3.3v-6.6h2.6v5.8c0,1.9,0.6,3.4,2.4,3.4
	c1.8,0,2.7-1.5,2.7-3.4V35.8z M437.9,37.5c0.5-1.1,1.8-2,3.4-2c3.4,0,4,2.3,4,4.4V47h-2.6v-6.3c0-1.8-0.6-2.9-2.1-2.9
	c-1.3,0-2.4,0.8-2.4,3.5V47h-2.6v-6.3c0-1.8-0.6-2.9-2-2.9c-1.3,0-2.4,0.8-2.4,3.5V47h-2.6V35.8h2.6v1.6c0.5-1,1.7-1.8,3.1-1.8
	C436.5,35.5,437.5,36.4,437.9,37.5z"/>
<path id="Fill-2" class="st0" d="M21,71.9c-0.1-0.1-0.1-0.1-0.1-0.2c0-0.2,0-0.3,0.4-0.5c0.1-0.1,0.3-0.2,0.3-0.2
	c0,0,0.1-0.2,0.2-0.3c0.1-0.2,0.2-0.4,0.3-0.5c0.1-0.1,0.2-0.3,0.2-0.4c0.1-0.2,0.6-0.7,0.6-0.7c0,0,0.1-0.1,0.2-0.4
	c0.2-0.6,0.5-1.6,0.7-2.3c0.2-0.8,0.2-0.9,0.4-1.4c0.1-0.4,0.2-0.8,0.2-1c0-0.1,0-0.4,0.1-0.6c0.2-0.6,0.2-1,0.2-2.2
	c0-1,0-1.2,0.1-1.4c0-0.1,0-0.3,0-1.3c0-0.9,0-1.3,0-1.5c0.1-0.4,0.2-0.8,0.2-1c0.2-0.3,0.6-1.3,0.8-2c0.3-1,0.6-2.6,0.7-3.3
	c0-0.4,0.1-0.6,0.2-1.3c0.1-0.4,0.1-0.6,0.1-0.9c0-0.2,0-0.5,0-0.7c0-0.2,0-0.5,0.1-0.8c0-0.5,0-0.9-0.1-1.8c-0.1-0.5-0.1-0.5,0-1.7
	c0-0.2,0-0.5,0-0.6c0-0.1,0-0.5,0-0.9c0-0.3,0-1,0-1.5c0-0.7,0-0.9,0-0.9c0,0,0,0,0-0.1c0,0,0-0.1,0-0.1c0-0.2,0.1-1.3,0.1-1.8
	c0-0.5,0-0.6-0.1-0.8c-0.1-0.3-0.3-0.7-0.8-1.2c-0.2-0.2-0.4-0.3-0.6-0.4c-0.2,0-0.5-0.1-0.6,0c-0.1,0.1-0.1,0.2,0,0.6
	c0.1,0.4,0.2,0.7,0.3,1c0.3,0.6,0.3,0.6,0.3,1.2c0,1.1,0,2.1,0,2.2c0,0,0,0.1,0,0.2c0,0.1,0,0.2-0.1,0.3c-0.1,0.2-0.1,0.6-0.1,0.8
	c0,0.1,0,0.2,0,0.2c0,0,0,0.1,0,0.8c0,0.4,0,0.8,0,0.9c0.1,0.1,0.2,0.6,0.2,0.8c0,0.1,0,0.3,0.1,0.5c0.1,0.4,0.1,0.5,0,0.5
	c-0.1,0-0.2,0-0.2,0c-0.1-0.1-0.2-0.1-0.4-0.2c-0.1,0-0.1-0.1-0.2-0.1c-0.2-0.1-0.7-0.4-0.7-0.4c0,0-0.1-0.1-0.3-0.1
	c-0.2-0.1-0.3-0.2-0.4-0.2c-0.1,0-0.3-0.1-0.5-0.2c-0.7-0.3-1.6-0.6-2.1-0.6c-1.4-0.1-2.2-0.2-3.6-0.2c-0.9,0-1.3,0-1.6,0
	c-0.2,0-0.7,0.1-1.1,0.1c-0.5,0-0.8,0-0.9,0.1c-0.1,0-0.3,0-0.7,0c-0.4,0-0.7,0-1.1,0.1c-0.3,0-0.7,0.1-0.8,0.1
	c-0.2,0-0.9,0-2.2,0.1c-0.5,0-0.6,0-1.1,0c-0.3,0-0.7-0.1-0.9-0.1c-1.2-0.1-1.5-0.2-2-0.5c-0.3-0.2-0.6-0.5-0.6-0.6
	c-0.2-0.7-0.3-2-0.3-2.7c0-0.2,0-0.4,0-0.5c0-0.1,0-0.4,0-0.6c0-0.3,0-0.5,0-0.6c0-0.1,0-0.3,0.1-0.6c0.1-1,0.1-2.2,0-3.2
	c-0.1-0.5-0.1-0.9-0.1-1.3c0-0.6-0.2-1.1-0.4-1.5c-0.1-0.2-0.2-0.4-0.2-0.4c0-0.1-0.1-0.3-0.2-0.4c-0.1-0.2-0.2-0.3-0.2-0.4
	c0-0.1-0.1-0.2-0.1-0.2c-0.1-0.1-0.1-0.3-0.1-0.3c0-0.1-0.1-0.2-0.4-0.9C2.1,28.6,2,28.3,2,28.3c-0.1-0.2-0.3-0.6-0.3-0.7
	c0,0-0.4-0.9-0.6-1.1c0-0.1-0.2-0.5-0.4-0.9c0,0-0.1-0.3-0.2-0.5c-0.1-0.2-0.2-0.6-0.3-0.8C0,23.7,0,23.5,0,22.7
	c0-0.8,0-0.9,0.3-1.4c0,0,0-0.1,0-0.1c0-0.1,0.2-0.6,0.3-0.9c0.3-0.7,0.7-1.4,1.1-1.9c0.1-0.1,0.1-0.2,0.1-0.2
	c0-0.1,0.1-0.1,0.2-0.1c0.2,0,0.2,0.1,0.5,0.7c0.1,0.2,0.2,0.4,0.2,0.5c0.1,0.2,0.2,0.7,0.4,0.9c0.1,0.1,0.1,0.3,0.2,0.5
	c0.3,1,0.8,1.7,1.6,2.2C4.9,23.2,5,23.2,5,23.3c0,0,0.1,0,0.2-0.1c0.1-0.1,0.2-0.3,0.3-0.4l0-0.1l-0.3-0.3c-0.3-0.3-0.6-0.7-0.7-0.8
	c0,0-0.1-0.2-0.3-0.3c-0.2-0.3-0.4-0.5-0.5-0.8c0-0.1-0.1-0.3-0.2-0.6c-0.3-0.7-0.5-1.3-0.7-2.2c-0.2-0.8-0.3-1.9-0.2-2.2
	c0-0.2,0-0.3,0.1-0.5c0-0.1,0.1-0.2,0.1-0.3c0-0.1,0.5-1.2,0.9-2c0.5-1,1.3-2.5,1.5-2.5c0.1,0,0.3,0,0.4,0c0.1,0,0.2,0.2,0.2,0.4
	c0,0.1,0,0.3,0,0.6c0,0.5,0.1,1.1,0.1,1.2c0,0,0,0.2,0.1,0.3c0,0.1,0.1,0.3,0.1,0.4c0,0.1,0.1,0.4,0.2,0.7c0.4,1.1,0.7,2.1,0.8,2.4
	c0.3,0.6,0.6,1.1,1,1.3c0.1,0.1,0.1,0.1,0.2,0c0.1,0,0.1,0,0.1-0.3c0-0.2,0-0.4,0-0.6c0-0.2,0-0.4-0.1-0.6c0-0.2,0-0.4-0.1-0.4
	c0-0.1,0-0.2-0.1-0.3c0-0.1,0-0.2-0.1-0.3c0-0.1-0.1-0.3-0.1-0.4c-0.1-0.5-0.2-1.1-0.3-1.4c-0.1-0.3-0.2-1.2-0.3-1.9
	c0-0.5-0.1-0.7-0.1-0.7c0,0-0.1-0.7-0.2-1.2c0-0.3,0-0.7,0-0.9c0-0.4,0-0.5,0.1-0.6c0-0.1,0.1-0.2,0.1-0.2C7.5,7.7,7.8,7,8,6.6
	c0.6-1.2,1.5-2.4,2.3-3.4c0.4-0.4,0.9-0.9,1-0.9c0,0,0.1,0,0.1-0.1c0,0,0,0,0.1,0c0.1,0,0.4,0.4,0.4,0.8c0,0.1,0,0.2,0,0.4
	c0,0.1,0,0.4-0.1,0.6c0,0.2,0,0.6-0.1,0.8c0,0.3,0,0.7,0,1.8c0,1.4,0,1.6,0.1,2c0,0.1,0.1,0.4,0.1,0.6c0.1,0.6,0.1,0.8,0.2,1.1
	c0.1,0.5,0.1,0.6,0.2,0.7c0,0.1,0,0.2,0,0.2c0,0,0.1,0.5,0.1,0.7c0,0,0,0.2,0,0.2c0.1,0.3,0.1,0.5,0.1,0.7c0,0.2,0,0.2,0.2,0.5
	c0.1,0.2,0.1,0.3,0.1,0.3c0,0,0.1,0.1,0.1,0.2c0.1,0.1,0.1,0.1,0.2,0.1c0.1,0,0.1,0,0.1-0.2c0-0.1,0.1-0.3,0.1-0.4
	c0-0.3,0.1-0.4,0.1-0.7c0-0.2,0-0.2,0-0.3c0-0.1,0-0.4,0-0.7c0-0.3,0-0.7,0-0.7c0,0-0.1-0.5-0.1-1.1c-0.1-1.1-0.1-1.8-0.2-2.1
	c0-0.1,0-0.2,0-0.3c0-0.1,0-0.2,0-0.3c0-0.1,0-0.3,0-0.5c0-0.2,0-0.5,0-0.7c0-0.3,0-1.4,0-1.8c0.1-0.5,0.1-0.8,0.2-1
	c0.1-0.2,1.2-2.2,1.2-2.3c0,0,0.1-0.1,0.2-0.2c0.2-0.1,0.4-0.4,0.5-0.5C15.3,0,15.4,0,15.7,0c0.2,0,0.3,0.1,0.5,0.2
	c0.1,0.1,0.1,0.1,0.2,0.4c0.1,0.6,0.4,1.3,0.7,1.8C17,2.5,17,2.6,17,2.7c0,0,0,0.1,0.1,0.2C17.2,3,17.4,3.6,17.5,4
	c0.3,1.5,0.5,2.6,0.8,3.7c0.1,0.3,0.2,0.6,0.2,0.6c0,0.1,0,0.2,0.1,0.3c0,0.1,0.1,0.3,0.1,0.4c0,0.1,0,0.3,0.1,0.4
	c0,0.1,0.1,0.3,0.1,0.4c0,0.1,0.1,0.3,0.1,0.3c0,0.1,0.1,0.2,0.1,0.2c0,0,0,0.2,0.1,0.3c0.1,0.3,0.2,1,0.2,1.2c0,0.1,0,0.2,0,0.3
	c0.1,0.5,0.2,1.1,0.3,1.4c0,0.2,0.1,0.6,0.1,0.8c0,0.1,0.1,0.2,0.1,0.3c0,0.1,0,0.2,0.1,0.4c0.1,0.4,0.2,0.7,0.2,1
	c0,0.1,0.1,0.4,0.1,0.6c0.1,0.6,0.2,1,0.3,1.6c0.1,0.3,0.1,0.6,0.1,0.7c0,0.4,0.1,1.2,0.2,1.5c0,0.1,0.1,0.6,0.1,0.9
	c0,0.6,0,0.8,0.1,0.9c0,0.1,0.1,0.8,0.1,1c0,0.5,0.1,1.2,0.4,2.1c0,0.1,0.1,0.2,0.1,0.3c0,0.1,0,0.2,0,0.2c0,0.1,0,0.3,0,0.5
	c0,0.2,0,0.4,0.1,0.5c0,0.1,0,0.3,0.1,0.4c0,0.1,0,0.3,0.1,0.4c0.1,0.2,0.1,0.6,0.2,0.9c0,0.2,0,0.2,0.1,0.3
	c0.1,0.1,0.2,0.2,0.4,0.1c0.2-0.1,0.3-0.2,0.4-0.3c0.1-0.1,0.1-0.2,0.2-0.2c0,0,0.1,0,0.2,0c0.2,0,0.3,0.1,0.4,0.2
	c0.1,0.1,0.1,0.2-0.1,0.9c-0.1,0.4-0.1,0.5-0.1,0.9c0,0.4,0,0.9,0.1,1.2c0,0.2,0.2,0.4,0.4,0.4c0.1,0,0.3-0.1,0.3-0.1
	c0-0.1,0.3-0.2,0.5-0.2c0.1,0,0.3,0.1,0.3,0.3c0,0,0,0.1,0.1,0.1c0,0,0.2-0.1,0.2-0.2c0.1-0.2,0-1-0.2-1.4c0-0.1-0.2-0.3-0.3-0.5
	c-0.2-0.4-0.5-0.8-0.6-1.1C24.2,28.6,24,28.1,24,28c0-0.1,0.6-0.1,0.8,0c0.5,0.1,0.9,0.5,1.1,1.1c0.1,0.1,0.1,0.3,0.1,0.3
	c0,0.1,0,0.1,0.1,0.1c0,0,0.2,0.8,0.2,1.1c0,0.1,0,0.5,0.1,0.9c0.1,0.4,0.1,0.7,0.1,0.8c0,0.2,0,0.2,0.5,0.2c1,0,1.9-0.2,2.8-0.8
	c0.1-0.1,0.3-0.2,0.5-0.3c0.2-0.1,0.4-0.3,0.6-0.4c0.5-0.3,1.3-0.8,1.7-1c0.2-0.1,0.4-0.3,0.6-0.3c0.3-0.2,0.5-0.3,0.7-0.4
	c0.1,0,0.2-0.1,0.2-0.1c0,0,0.1-0.1,0.2-0.1c0.2-0.1,0.6-0.5,0.8-0.7c0.1-0.1,0.3-0.2,0.4-0.3c0.1-0.1,0.3-0.2,0.4-0.3
	c0.1-0.1,0.2-0.2,0.3-0.2c0.2-0.1,1.5-1,1.7-1.1c0.1-0.1,0.3-0.2,0.4-0.3c0.3-0.3,0.4-0.4,1.1-0.9c0.7-0.5,1.3-0.9,1.8-1.3
	c0.2-0.1,0.3-0.2,0.4-0.2c0,0,0.2-0.1,0.5-0.3c0.2-0.2,0.5-0.3,0.6-0.3c0.3-0.1,0.9-0.4,1-0.5c0,0,0.2-0.1,0.3-0.2
	c0.1-0.1,0.2-0.1,0.3-0.2c0.2-0.1,0.6-0.4,1.1-0.7c0.9-0.5,2-1.1,2.9-1.5c0.4-0.2,0.5-0.2,0.8-0.5c0.2-0.2,0.6-0.4,0.8-0.5l0.1,0
	l0,0.4c0,0.6,0,1.3-0.1,1.9c-0.2,1-0.7,2.1-1.4,2.9c-0.6,0.7-1.7,1.9-2.5,2.6c-0.6,0.5-1,0.9-1.1,0.9c-0.1,0-0.3,0.2-0.4,0.3
	c-0.1,0.1-0.2,0.2-0.4,0.3c-0.2,0.1-0.4,0.2-0.6,0.5c-0.3,0.3-0.7,0.6-1,0.8c-0.1,0.1-0.2,0.1-0.2,0.2c0,0.1,0.1,0.3,0.2,0.4
	c0.1,0.1,0.1,0.1,0.2,0.2c0.1,0.1,0.2,0.1,0.4,0.1c0.3,0,0.6-0.1,0.8-0.3c0.1-0.1,0.3-0.2,0.4-0.2c0.1-0.1,0.2-0.1,0.2-0.2
	c0.1-0.1,0.4-0.3,0.9-0.6c1.5-0.9,3.2-2.2,4.7-3.4c0.1-0.1,0.2-0.1,0.2-0.1c0,0,0,0.4,0,0.8c0,0.4,0,1.2,0,1.7c0,0.6,0,0.9-0.1,1.1
	c0,0.2-0.1,0.4-0.1,0.5c-0.1,0.8-0.3,1.4-0.8,1.8c-0.2,0.3-0.5,0.4-0.9,0.6c-1.1,0.5-2.7,1.3-3.7,1.9c-0.2,0.1-0.4,0.2-0.5,0.3
	c-0.7,0.4-1.1,0.6-1.6,0.9c-1.2,0.7-1.1,0.6-1.1,0.9c0,0.2,0.1,0.2,0.3,0.3c0.2,0.1,0.6,0.1,0.8,0c0.1,0,0.2-0.1,0.3-0.1
	c0.1,0,0.2-0.1,0.3-0.1c0.1,0,0.3-0.1,0.5-0.1c1.2-0.2,2.4-0.6,3.4-1.1c0.2-0.1,0.3-0.1,0.3-0.1c0.2,0,1.1-0.4,1.4-0.7
	c0.3-0.3,0.5-0.4,0.6-0.4c0.1,0,0.2,0,0.3,0.2c0.1,0.2,0.2,0.4,0.1,0.7c-0.1,0.7-0.3,1.2-0.6,1.5c-0.4,0.4-1.5,1-2.5,1.4
	c-1.2,0.5-2.8,0.9-4.1,1c-0.1,0-0.3,0-0.4,0.1c-0.1,0-0.3,0.1-0.6,0.1c-0.5,0.1-0.6,0.1-0.7,0.3c-0.1,0.1-0.1,0.1,0,0.2
	c0,0.1,0.2,0.3,0.4,0.4c0.2,0.1,0.4,0.1,2.4,0.1l1.9,0l0.2-0.1c0.1,0,0.3-0.1,0.3-0.1c0.1,0,0.9-0.3,1.2-0.5
	c0.3-0.1,0.7-0.2,0.9-0.1c0.1,0,0.1,0,0.1,0.4c0,0.7-0.1,1.4-0.2,2c-0.1,0.4-0.2,0.6-0.3,0.7c0,0-0.2,0.3-0.3,0.6
	C47,43,47,43.1,46.7,43.3c-0.3,0.2-1,0.5-1.4,0.7c-0.4,0.2-0.6,0.2-1.2,0.3c-0.4,0.1-1.1,0.1-1.4,0c-0.1,0-0.5-0.1-0.8-0.1
	c-0.3,0-0.6-0.1-0.6-0.1c-0.1,0-1.3,0-1.5,0c-0.1,0-0.2,0.1-0.2,0.2c0,0,0,0.1,0.1,0.2c0.3,0.5,0.5,0.7,0.8,0.9
	c0.3,0.2,0.6,0.3,1,0.4c0.2,0,0.4,0,1.4,0l1.2,0l0.3-0.1c0.2,0,0.5-0.1,0.8-0.2c0.3-0.1,0.6-0.2,0.6-0.2c0.2,0,0.2,0,0.2,0
	c0.1,0.1,0.1,0.3-0.3,1.1c-0.6,1.2-1.3,2.2-2.1,3.2c-0.3,0.3-0.4,0.4-1,0.5c-0.2,0-0.3,0-0.6,0c-0.2,0-0.4,0-0.4-0.1
	c0,0-0.3,0-0.5-0.1c-0.3,0-0.4,0-0.6-0.1c-0.2-0.1-0.5-0.1-0.9-0.2c-0.4-0.1-1.2-0.3-2-0.7c-0.7-0.3-1.2-0.5-1.8-0.6
	c-0.6-0.1-1.5,0-2,0.2l-0.1,0l0,0.3c0,0.2-0.1,1.2-0.2,2.3c0,0.2,0,0.4,0,0.6c0,0.1,0,0.3,0,0.3c0,0.1,0,0.2,0,0.3
	c0,0.1,0,0.3,0,0.6c0,0.2,0,0.6,0,0.7c0,0.3-0.1,1-0.1,1.2c0,0.2-0.1,0.6-0.1,0.9c0,0.1,0,0.3,0,0.3c0,0-0.1,0.6-0.1,1
	c0,0.2,0,0.3,0,0.3c0,0,0,0.1,0,0.2c0,0.1,0,0.3-0.1,0.4c0,0.1-0.1,0.4-0.2,0.7c-0.1,0.3-0.1,0.6-0.1,0.6c0,0-0.1,0.3-0.1,0.6
	c-0.2,1-0.5,2.4-0.8,3.4l-0.1,0.4l0,1.3c0,0.7,0,1.4,0,1.4c0,0.1,0.1,0.3,0.1,0.5c0.1,0.4,0.2,0.6,0.2,0.9c0.1,0.4,0.2,0.9,0.5,1.2
	c0.1,0.1,0.1,0.2,0.1,0.2c0,0,0.1,0.1,0.2,0.3c0.3,0.4,0.4,0.7,0.4,1.1c0,0.3,0,0.3-0.1,0.4c-0.1,0.2-0.2,0.3-0.5,0.3
	c-0.5,0-0.8-0.2-1.4-0.8c-0.4-0.4-0.6-0.6-0.9-1.1c-0.2-0.4-0.6-1.1-0.8-1.5C29,67.7,29,67.7,29,67.4l0-0.4l0.1,0
	c0.1,0,0.3,0,0.4,0.1c0.1,0.1,0.2,0.3,0.3,0.5c0.1,0.3,0.3,0.8,0.3,0.8c0,0,0.1,0.1,0.1,0.2c0.1,0.3,0.3,0.5,0.5,0.6
	c0.1,0,0.1,0,0.1,0c0-0.1-0.1-0.6-0.2-0.8c0-0.3-0.1-0.6-0.2-0.9c-0.1-0.3-0.1-0.4-0.1-1.1c0-0.5,0-0.8,0-1.1c0-0.2,0-0.5,0-0.6
	c0-0.7,0-0.9,0.1-1.3c0.2-0.9,0.6-2.5,0.7-2.9c0-0.1,0-0.2,0.1-0.3s0.1-0.3,0.1-0.4c0-0.1,0-0.3,0.1-0.4c0-0.1,0.1-0.2,0.1-0.3
	c0-0.1,0.1-0.2,0.2-0.5c0.1-0.2,0.2-0.4,0.2-0.4c0-0.1,0.2-0.8,0.3-1.3c0-0.2,0.1-0.4,0.1-0.4c0.1-0.1,0-1.1-0.1-1.2
	c-0.1-0.1-0.3-0.1-0.3,0.1c-0.1,0.2-0.1,0.2-0.1,0.4c0,0.1,0,0.3-0.1,0.4c0,0.1-0.1,0.5-0.1,0.9c0,0.6-0.1,0.9-0.1,1
	c0,0,0,0.1,0,0.1c0,0,0,0.1,0,0.1c0,0,0,0.1,0,0.1c0,0,0,0.1,0,0.1c0,0-0.1,0.2-0.1,0.4c-0.1,0.2-0.1,0.4-0.3,0.4
	c-0.1,0-0.2,0-0.3,0c-0.2,0-0.3,0-0.4-0.2c-0.1-0.1-0.1-0.2-0.1-0.4c0-0.3,0.1-0.7,0.2-0.9c0-0.1,0.1-0.2,0.1-0.3
	c0-0.1,0-0.2,0.1-0.2c0,0,0-0.1,0-0.1s0-0.1,0-0.1c0.1-0.1,0.1-0.3,0.3-1.1c0.2-0.9,0.4-1.9,0.4-2.2c0-0.3,0-0.5-0.2-1.1
	c-0.2-0.7-0.4-1.3-0.4-1.3c0,0,0.1,0,0.2,0c0.3,0,0.6,0.1,0.8,0.5c0.3,0.4,0.4,0.5,0.6,0.3c0.3-0.2,0.4-0.6,0.4-1.7
	c0-1-0.1-2.6,0-2.9c0-0.3,0-0.3,0-0.5c-0.1-0.4-0.2-1-0.2-1.3c-0.1-1.8-0.6-3.3-1.5-4.3l-0.2-0.3l-0.1,0c-0.1,0-0.2,0.1-0.3,0.1
	c-0.3,0.1-0.5,0.3-0.6,0.6c-0.2,0.3-0.2,0.5-0.2,1c0,0.4,0,0.5,0.1,0.7c0,0.1,0.1,0.3,0.1,0.3c0,0.1,0.1,0.2,0.1,0.3
	c0.1,0.1,0.2,0.4,0.4,1.1c0.1,0.5,0.3,1.2,0.4,1.6l0.2,0.7l0,1.1c0,1.4,0,1.6-0.1,1.7c-0.1,0.1-0.2,0.2-0.3,0.3
	c-0.2,0-0.2,0-0.2-0.1c-0.1-0.4-0.2-1.5-0.2-1.8c0-0.6-0.1-1.4-0.3-2.1c-0.1-0.2-0.1-0.3-0.1-0.4c0,0,0-0.1-0.1-0.2
	c-0.1-0.1-0.2-0.2-0.4-0.1l-0.2,0l0,0.2c0,0.1,0,0.3,0,0.3c0,0.1,0,0.2-0.1,0.4c0,0.2-0.1,0.3-0.1,0.4c-0.1,0.2-0.1,0.6-0.1,0.9
	c0,0.2-0.1,0.5-0.1,0.6c-0.1,0.2-0.1,0.3-0.1,1c0,0.6,0,0.7,0,0.7c0,0,0,0.1,0,0.3c0,0.2,0,0.3-0.1,0.4c0,0.1-0.1,0.1-0.1,0.2
	c0,0-0.1,0.3-0.2,0.5c-0.3,0.7-0.6,1.7-0.7,2.6c0,0.2-0.2,0.9-0.3,1.5c-0.4,2.4-0.8,4.1-1.4,6c-0.1,0.3-0.2,0.6-0.2,0.6
	c0,0,0,0.1,0,0.1c0,0,0,0.1,0,0.1c0,0.1-0.1,1-0.2,1.3c-0.1,0.4-0.1,0.5,0,1.8c0,0.5,0,0.6,0,0.8c-0.1,0.2-0.6,1.5-0.8,2.1
	c-0.1,0.3-0.3,0.7-0.4,0.9c-0.2,0.4-0.2,0.4-0.5,0.7c-0.5,0.5-0.8,0.8-1.4,1.1c-0.3,0.2-0.4,0.2-0.6,0.2C21.1,72,21.1,72,21,71.9z
	 M23.8,35.5c0-0.1-0.5-0.4-0.7-0.5c-0.1-0.1-0.2-0.1-0.3-0.2c-0.1-0.1-0.2-0.1-0.3-0.1c0,0-0.1,0-0.2,0c-0.2-0.1-0.4-0.1-1-0.2
	c-0.3,0-0.5-0.1-0.6-0.1c0,0-0.3,0-0.5-0.1c-0.2,0-0.5-0.1-0.7-0.1c-0.1,0-0.4-0.1-0.5-0.1c-0.1,0-0.5-0.1-0.8-0.1
	c-0.7-0.1-0.9-0.1-1.3-0.1c-0.2,0-0.5,0-0.7,0c-0.3,0-0.4,0-0.7,0c-0.2,0-0.3,0-0.4,0c-0.1,0-0.1,0,0,0.2c0.1,0.1,0.3,0.2,0.5,0.2
	c0.1,0,0.1,0,0.2,0c0,0,0.1,0,0.2,0.1c0.1,0,0.5,0.1,0.8,0.2c0.3,0.1,0.8,0.2,1.3,0.2c0.2,0,0.6,0.1,0.8,0.1
	c0.2,0.1,0.7,0.1,0.9,0.2c0.3,0.1,0.6,0.1,0.8,0.2c0.5,0.1,1.8,0.3,2.8,0.3C23.8,35.6,23.8,35.6,23.8,35.5z M25.4,34.5
	c0.1,0,0.1,0,0.1,0c0,0,0,0,0,0c0,0,0,0,0-0.1c0,0,0-0.1,0-0.1c0-0.1-0.3-0.5-0.4-0.6c-0.1-0.1-0.3-0.3-0.5-0.3
	c-0.2-0.1-1-0.1-1.2,0.1c0,0-0.1,0-0.1,0c0,0-0.1,0.1-0.1,0.2c0,0.1,0.1,0.2,0.3,0.4c0.1,0.1,0.4,0.3,0.4,0.3c0,0,0.1,0,0.1,0.1
	c0.1,0,0.2,0.1,0.2,0.1c0.1,0,0.2,0,0.3,0.1C25,34.6,25.2,34.6,25.4,34.5z M14.3,33.1c0,0,0.4,0,0.7-0.1c0.3,0,0.7,0,0.8,0
	c0.8-0.1,3.5-0.1,3.9,0c0.8,0.2,1.1,0.2,1.4,0.1c0.2,0,0.4-0.1,0.5-0.1c0.2-0.1,0.7-0.3,0.7-0.3c0-0.1,0-0.2-0.1-0.3
	c0,0-0.1-0.1-0.3-0.1c-0.4,0-0.6,0-0.8-0.1c-0.1,0-0.4,0-0.6-0.1c-0.7,0-1.2-0.2-1.5-0.4c-0.1-0.1-0.2-0.1-0.2-0.1
	c0,0-0.1,0-0.1-0.1c0,0,0,0-0.1,0c-0.1,0-0.2,0-0.4-0.1c-0.4-0.1-1.5-0.1-1.7,0c-0.4,0.1-0.5,0.1-0.6,0.1c-0.1,0-0.2,0.1-0.2,0.1
	c-0.5,0.4-0.9,0.6-1.1,0.6c-0.2,0-0.3-0.1-0.4-0.2c-0.1-0.2-0.1-0.4-0.1-0.6c0,0,0-0.1,0-0.1c0-0.1,0.1-0.2,0.2-0.5
	c0.1-0.2,0.1-0.2,0.1-0.6c0-0.2,0-0.5,0-0.6c0-0.2,0-0.6,0-1c0-0.3,0-0.4,0-0.6c0-0.1,0-0.3,0-0.4c0-0.1,0-0.7,0-1.3
	c0-0.9,0-1.1,0-1.3c0.1-0.2,0.1-0.4,0.2-0.5c0-0.1,0.1-0.2,0.2-0.3c0.2-0.3,0.3-0.6,0.5-0.7c0.1-0.1,0.1-0.2,0.1-0.3
	c0-0.2-0.1-0.4-0.2-0.5c-0.1-0.1-0.3-0.2-0.5-0.2c-0.2,0-0.2,0-0.3,0.1c-0.5,0.3-0.8,0.8-0.9,1.4c-0.1,0.2-0.1,0.3-0.1,1.3
	c0,0.6,0,1.2,0,1.4c0,0.2,0,0.4,0,0.4c0,0.8,0,1.3-0.1,1.5c0,0.2,0,0.4-0.1,0.6c0,0.4-0.1,0.8-0.1,1c-0.1,0.5-0.1,0.9-0.1,1
	c0,0.1,0.1,0.6,0.1,1c0,0.2,0,0.4,0.1,0.5C13.5,33,14,33.1,14.3,33.1z M11.9,32c0.2-0.3,0.4-0.7,0.5-1.1c0.1-0.3,0.1-0.5,0.1-1
	c0-0.2,0.1-0.6,0.1-0.8c0-0.3,0.1-0.5,0.1-0.6c0-0.1,0-0.3,0.1-0.6c0-0.3,0.1-0.5,0.1-0.7c0-0.2,0-0.5,0.1-0.7
	c0-0.3,0.1-0.6,0.1-1.3l0-0.9l0.1-0.4c0.1-0.6,0.4-1.3,0.6-1.5c0.2-0.2,1.2-0.6,2.1-0.7c0.2,0,0.4-0.1,0.4-0.1c0,0,0.7-0.1,1-0.1
	c0.5,0,0.9,0,1.7,0.2c0.6,0.2,0.6,0.2,0.6,0.3c0,0-0.1,0.2-0.3,0.6c-0.5,0.9-1,1.7-1.4,2.4l-0.2,0.5l0,0.2c0.1,0.5,0.5,0.9,0.9,1
	c0.1,0,0.2,0.1,0.5,0.8c0.4,0.8,0.7,1.6,1,2.5c0.1,0.4,0.2,0.6,0.4,1.2c0.1,0.2,0.1,0.2,0.1,0.2c0.1,0,0.1,0,0.2-0.2
	c0.2-0.4,0.2-0.5,0.2-0.8c0-0.1,0-0.4,0-0.6c0-0.2,0-0.5,0-0.6c0-0.1,0-0.3-0.1-0.4c0-0.1,0-0.3,0-0.4c0-0.1,0-0.2,0-0.3
	c0,0,0-0.3-0.1-0.7c-0.1-1.4-0.3-2.9-0.3-3c0,0,0-0.1,0-0.2c0-0.1,0-0.2,0-0.3c0-0.1,0-0.3,0-0.5c0-0.2,0-0.4,0-0.4
	c0,0,0-0.3-0.1-0.6c0-0.5-0.1-0.9-0.1-1c-0.1-0.2-0.1-0.5-0.1-1c0-0.5-0.1-0.8-0.3-2.1c-0.1-0.3-0.1-0.7-0.1-0.8
	c0-0.1,0-0.3-0.1-0.4c-0.1-0.3-0.4-2.3-0.5-3.2c0-0.3-0.1-0.4-0.2-0.9c-0.1-0.3-0.2-0.6-0.2-0.8c-0.1-0.6-0.1-0.8-0.2-0.9
	c0-0.1,0-0.1,0-0.2c0,0,0-0.1-0.1-0.2c-0.1-0.4-0.5-2-0.7-3.5c-0.1-0.7-0.3-1.9-0.3-2.1c0-0.2-0.3-1.2-0.4-1.5
	c-0.3-0.5-0.7-0.9-1.2-1.1l-0.2-0.1l-0.1,0.1c-0.3,0.3-0.5,0.5-0.5,0.8c0,0.2-0.1,0.7-0.1,1.1c0,0.2,0,0.7,0,1.2c0,0.5,0,1,0,1.1
	c0,0.2,0,0.3,0.1,0.9c0,0.2,0,0.4,0,1c0,0.4,0,1.2,0,1.8c0,0.6,0,1.1,0,1.3c0,0.4-0.3,1.8-0.3,2.1c0,0.1-0.1,0.3-0.1,0.4
	c0,0.1,0,0.2-0.1,0.2c0,0-0.2,0.4-0.5,0.9c-0.2,0.5-0.5,1-0.6,1.2L12.8,17l0,0.3c0,0.4-0.2,2-0.2,2.1c0,0,0,0.1-0.1,0.2
	c0,0.1-0.1,0.3-0.1,0.5c-0.2,0.7-0.4,1.3-0.9,1.8c-0.1,0.1-0.2,0.2-0.2,0.2c0,0.1-0.3,1.1-0.5,1.7l-0.2,0.5l0,0.9c0,1,0,0.9,0.2,1.6
	c0.1,0.3,0.1,0.4,0.1,0.7c0,0.4,0,0.7-0.1,0.9c-0.1,0.1-0.1,0.2-0.1,0.2c0,0.1-0.1,0.4-0.2,0.5c0,0.1-0.1,0.3-0.2,0.4
	c-0.1,0.3-0.1,0.3-0.1,0.6c0,0.3,0,0.4,0.1,0.7c0.1,0.2,0.5,0.8,0.9,1c0.1,0.1,0.2,0.1,0.3,0.1C11.8,32.1,11.8,32.1,11.9,32L11.9,32
	z M3.8,26.1c0.2-0.2,0.3-0.4,0.4-0.7c0.1-0.4,0.1-1.3,0-1.4c0,0-0.1-0.1-0.1-0.2c-0.1-0.2-0.2-0.6-0.4-0.7c-0.1-0.2-0.3-0.3-0.5-0.4
	c-0.2-0.1-0.5-0.1-0.8,0l-0.2,0.1l0,0.1c0.1,0.3,0.2,0.9,0.4,1.1c0,0.1,0.2,0.2,0.2,0.3c0.2,0.3,0.3,0.3,0.3,0.6c0,0.2,0,0.3,0,0.3
	c0,0,0,0.1,0,0.2c0,0.2,0.1,0.4,0.1,0.5c0.1,0.1,0.2,0.2,0.4,0.2h0.2L3.8,26.1L3.8,26.1z M6.9,20.1C7.1,20,7.1,20,7.1,19.6
	c0-0.4-0.1-0.6-0.4-2c-0.4-1.8-0.5-2.1-0.7-2.3C5.7,15,5.4,15,5.2,15.1L5,15.2v0.7c0,0.6,0,0.8,0.1,1c0.2,1.2,0.7,2.3,1.4,3
	C6.7,20.2,6.8,20.2,6.9,20.1z M10.2,14.7c0.2-0.1,0.4-0.2,0.6-0.4c0.2-0.2,0.3-0.4,0.4-0.8l0.1-0.3v-1.2c0-1.1,0-1.2-0.1-1.4
	c-0.1-0.4-0.2-1.2-0.3-1.5c0-0.2,0-0.3,0-0.3c0-0.1-0.1-0.5-0.1-0.8c0-0.3-0.1-0.4-0.2-0.4c-0.1,0-0.1,0-0.3,0.1
	C10,8.1,9.7,8.4,9.7,8.6c0,0.1,0,0.2,0,0.4c0,0.1-0.1,0.4-0.1,0.6c0,0.2-0.1,0.5-0.1,0.8c0,0.2-0.1,0.6-0.1,0.7c0,0.4-0.1,1.3,0,1.8
	c0,0.6,0.1,1.2,0.1,1.5c0,0.3,0,0.3,0.1,0.4c0.1,0.1,0.1,0.1,0.2,0.1C10,14.8,10.1,14.8,10.2,14.7z"/>
</svg>

